<?xml version="1.0" standalone="no"?>
<!DOCTYPE svg PUBLIC "-//W3C//DTD SVG 20010904//EN"
 "http://www.w3.org/TR/2001/REC-SVG-20010904/DTD/svg10.dtd">
<svg version="1.0" xmlns="http://www.w3.org/2000/svg"
 width="2048.000000pt" height="2048.000000pt" viewBox="0 0 2048.000000 2048.000000"
 preserveAspectRatio="xMidYMid meet">
<metadata>
Created by potrace 1.14, written by Peter Selinger 2001-2017
</metadata>
<g transform="translate(0.000000,2048.000000) scale(0.100000,-0.100000)"
fill="#000000" stroke="none">
<path d="M9868 19795 c-2 -1 -64 -6 -138 -9 -192 -10 -248 -14 -305 -20 -27
-3 -77 -8 -110 -11 -33 -3 -73 -7 -90 -9 -16 -2 -57 -7 -90 -11 -72 -8 -87 -9
-240 -30 -66 -9 -142 -20 -170 -25 -62 -11 -110 -19 -155 -26 -19 -3 -78 -14
-130 -24 -52 -11 -106 -22 -120 -24 -14 -3 -68 -14 -120 -26 -52 -11 -115 -25
-140 -30 -25 -5 -52 -11 -60 -14 -8 -3 -28 -8 -44 -10 -101 -17 -645 -179
-876 -261 -214 -76 -482 -181 -635 -250 -27 -12 -95 -42 -150 -66 -270 -118
-676 -332 -1015 -537 -268 -161 -670 -436 -860 -589 -8 -6 -60 -47 -115 -89
-88 -69 -271 -219 -285 -234 -3 -3 -21 -18 -40 -34 -151 -123 -485 -446 -711
-687 -187 -199 -245 -265 -389 -439 -34 -41 -69 -84 -78 -95 -202 -243 -528
-704 -707 -997 -38 -63 -141 -239 -163 -277 -14 -25 -52 -93 -85 -151 -73
-129 -267 -519 -326 -655 -24 -55 -55 -125 -68 -155 -87 -193 -228 -569 -321
-860 -74 -231 -91 -291 -163 -570 -37 -145 -89 -372 -105 -465 -3 -16 -9 -49
-15 -73 -5 -23 -12 -59 -15 -80 -3 -20 -7 -48 -10 -62 -27 -157 -35 -211 -48
-305 -8 -60 -18 -132 -21 -160 -3 -27 -8 -63 -10 -80 -10 -78 -22 -202 -30
-305 -3 -36 -7 -85 -9 -110 -22 -254 -29 -951 -13 -1215 12 -186 25 -358 32
-410 2 -16 7 -57 10 -90 8 -86 24 -226 29 -255 3 -14 7 -45 10 -70 13 -110 82
-505 110 -630 3 -14 11 -50 17 -80 6 -30 29 -127 51 -215 22 -88 43 -176 48
-195 4 -19 27 -100 50 -180 23 -80 43 -149 44 -155 2 -5 6 -17 9 -25 3 -8 24
-71 46 -140 100 -307 199 -568 324 -855 200 -457 431 -893 689 -1300 74 -116
345 -515 357 -525 3 -3 33 -41 65 -85 74 -99 196 -257 210 -270 6 -5 23 -26
38 -47 15 -20 33 -42 40 -50 7 -7 33 -38 58 -68 214 -260 523 -582 876 -910
445 -415 1161 -936 1699 -1236 28 -15 97 -54 155 -87 266 -150 868 -429 1160
-537 281 -105 548 -194 781 -260 79 -22 167 -47 194 -55 76 -22 480 -114 560
-128 17 -3 68 -13 115 -22 47 -9 96 -18 110 -19 14 -2 34 -6 45 -9 37 -11 452
-68 600 -82 33 -4 76 -8 95 -10 19 -3 69 -7 110 -10 41 -3 98 -8 125 -11 211
-19 898 -26 1170 -11 234 12 364 22 445 32 19 2 60 7 90 10 187 19 405 49 585
81 77 14 152 27 166 29 134 21 569 120 764 175 504 141 941 300 1435 521 193
87 686 341 810 418 8 5 78 47 154 92 162 96 496 317 636 420 84 62 317 235
334 249 10 8 23 20 30 25 6 6 45 37 86 69 41 33 93 76 115 95 23 20 68 59 100
86 67 56 224 195 270 239 269 256 531 528 716 741 535 618 987 1297 1343 2015
125 254 121 245 217 470 38 91 74 174 79 185 63 137 210 558 308 880 47 154
139 507 155 595 3 14 8 36 11 50 22 94 95 474 101 529 4 30 8 58 10 61 2 3 6
29 10 59 4 30 8 61 10 70 4 23 17 121 20 151 1 14 5 50 9 80 14 116 17 146 21
190 8 94 17 196 20 235 27 300 27 1041 0 1395 -7 92 -15 183 -20 225 -2 22 -9
85 -15 140 -6 55 -13 114 -15 130 -2 17 -7 53 -10 80 -4 28 -8 61 -11 75 -2
14 -6 43 -9 65 -5 42 -41 262 -50 305 -3 14 -12 66 -21 115 -8 50 -20 104 -24
120 -5 17 -11 41 -14 55 -3 14 -14 66 -25 115 -57 256 -50 229 -131 510 -23
77 -43 147 -45 156 -22 95 -218 649 -271 767 -13 29 -24 57 -24 62 0 6 -4 18
-10 28 -5 9 -31 69 -58 132 -91 213 -106 244 -230 493 -122 243 -317 592 -442
792 -102 162 -320 485 -372 550 -4 6 -60 79 -124 164 -108 144 -206 267 -279
351 -16 20 -50 60 -75 90 -25 30 -54 64 -65 76 -11 11 -54 58 -95 104 -141
158 -457 479 -600 610 -819 753 -1703 1330 -2710 1768 -193 84 -544 222 -564
222 -4 0 -22 6 -39 14 -31 14 -287 99 -397 131 -30 9 -84 26 -120 37 -108 33
-447 121 -515 133 -16 3 -46 10 -65 15 -45 11 -226 48 -276 56 -22 3 -41 7
-44 9 -3 2 -24 6 -46 9 -22 4 -51 9 -64 11 -14 3 -41 8 -60 11 -19 3 -48 7
-65 10 -16 3 -37 7 -45 9 -8 2 -37 7 -65 10 -27 3 -63 7 -80 10 -62 10 -111
16 -155 20 -25 3 -61 7 -80 10 -19 2 -60 7 -90 10 -105 10 -165 17 -190 20
-14 2 -77 7 -140 10 -63 4 -137 9 -165 12 -55 5 -891 13 -897 8z"/>
</g>
</svg>
